# xmcd
#
# Track frame offsets: 
#        150
#        14110
#        34522
#        53717
#        69667
#        85877
#        107930
#        128490
#        142077
#        164382
#        186175
#        209535
#        226862
#        251932
#        265912
#        281627
#
# Disc length: 4062 seconds
#
# Revision: 6
# Processed by: cddbd v1.5.2PL0 Copyright (c) Steve Scherf et al.
# Submitted via: ExactAudioCopy v1.0b4
#
DISCID=ec0fdc10,f00fdc10
DTITLE=Calvin Russell - Crossroad
DYEAR=2000
DGENRE=Roots Rock
TTITLE0=Where The Blues Get Born
TTITLE1=One Meatball
TTITLE2=Let The Music Play
TTITLE3=A Crack In Time
TTITLE4=Time Flies
TTITLE5=Soldier
TTITLE6=Little Stars
TTITLE7=Rats And Roaches
TTITLE8=Crossroads
TTITLE9=Behind The 8 Ball
TTITLE10=Sam Brown
TTITLE11=Wild Wild West
TTITLE12=This Is Your World
TTITLE13=That Wouldn't Be Enough
TTITLE14=I Gave My Soul To You
TTITLE15=Somewhere Over The Rainbow
EXTD=YEAR: 2000
EXTT0=
EXTT1=
EXTT2=
EXTT3=
EXTT4=
EXTT5=
EXTT6=
EXTT7=
EXTT8=
EXTT9=
EXTT10=
EXTT11=
EXTT12=
EXTT13=
EXTT14=
EXTT15=
PLAYORDER=
